<svg xmlns="http://www.w3.org/2000/svg" width="24" height="24" viewBox="0 0 24 24">
    <g id="prefix__ic_baro" transform="translate(-34.392 -717)">
        <path id="prefix__사각형_4640" d="M0 0H24V24H0z" data-name="사각형 4640" transform="translate(34.392 717)" style="fill:none"/>
        <path id="prefix__lightning" d="M91.292 14.046a.659.659 0 0 1-.651-.759L91.4 8.34h-2.742a.658.658 0 0 1-.647-.78L89.328.537A.658.658 0 0 1 89.975 0h3.511a.658.658 0 0 1 .646.788l-.72 3.6h3.147a.658.658 0 0 1 .557 1.01l-5.267 8.34a.658.658 0 0 1-.557.307z" transform="translate(-43.608 722.978)" style="fill:#fff"/>
    </g>
</svg>
