<svg xmlns="http://www.w3.org/2000/svg" width="49" height="49" viewBox="0 0 49 49">
    <defs>
        <filter id="prefix__사각형_4501" width="49" height="49" x="0" y="0" filterUnits="userSpaceOnUse">
            <feOffset dy="3"/>
            <feGaussianBlur result="blur" stdDeviation="1.5"/>
            <feFlood flood-opacity=".129"/>
            <feComposite in2="blur" operator="in"/>
            <feComposite in="SourceGraphic"/>
        </filter>
    </defs>
    <g id="prefix__ic_gps" transform="translate(-299.5 -207.5)">
        <g transform="translate(299.5 207.5)">
            <rect id="prefix__사각형_4501-2" width="40" height="40" data-name="사각형 4501" rx="20" transform="translate(4.5 1.5)" style="fill:#fff"/>
        </g>
        <g id="prefix__gps" transform="translate(313.778 218.778)">
            <path id="prefix__패스_13829" d="M.353 11.28h1.832a8.115 8.115 0 0 0 6.979 6.979v1.833a.354.354 0 0 0 .353.353h1.41a.354.354 0 0 0 .353-.353v-1.833a8.115 8.115 0 0 0 6.979-6.979h1.833a.354.354 0 0 0 .353-.353v-1.41a.354.354 0 0 0-.353-.353h-1.833a8.115 8.115 0 0 0-6.979-6.979V.352A.354.354 0 0 0 10.927 0h-1.41a.354.354 0 0 0-.353.353v1.832a8.115 8.115 0 0 0-6.979 6.98H.353A.354.354 0 0 0 0 9.517v1.41a.354.354 0 0 0 .353.353zm9.87-7.05a5.992 5.992 0 1 1-5.993 5.992 5.993 5.993 0 0 1 5.992-5.992zm0 0" data-name="패스 13829"/>
            <path id="prefix__패스_13830" d="M191.019 188.2a2.82 2.82 0 1 1-2.82-2.82 2.82 2.82 0 0 1 2.82 2.82zm0 0" data-name="패스 13830" transform="translate(-177.976 -177.977)"/>
        </g>
    </g>
</svg>
