<svg xmlns="http://www.w3.org/2000/svg" width="65.552" height="18.779" viewBox="0 0 65.552 18.779">
    <defs>
        <style>
            .cls-1{fill:#00b1a3}
        </style>
    </defs>
    <g id="그룹_10535" data-name="그룹 10535" transform="translate(-936.213 -793.476)">
        <path id="패스_14267" d="M1050.11 840.9a5.931 5.931 0 0 0-2.266-2.277 6.462 6.462 0 0 0-3.233-.816 6.556 6.556 0 0 0-3.261.815 5.838 5.838 0 0 0-2.271 2.282 7.051 7.051 0 0 0 0 6.533 5.841 5.841 0 0 0 2.271 2.283 6.911 6.911 0 0 0 6.514 0 5.861 5.861 0 0 0 2.259-2.281 7.011 7.011 0 0 0-.012-6.537zm-5.5 6.275a2.764 2.764 0 0 1-1.449-.375 2.628 2.628 0 0 1-.994-1.043 3.228 3.228 0 0 1-.37-1.576 3.287 3.287 0 0 1 .372-1.59 2.611 2.611 0 0 1 .992-1.049 2.984 2.984 0 0 1 2.9 0 2.545 2.545 0 0 1 .978 1.043 3.362 3.362 0 0 1 .365 1.6 3.3 3.3 0 0 1-.364 1.582 2.561 2.561 0 0 1-.98 1.036 2.764 2.764 0 0 1-1.449.373z" class="cls-1" data-name="패스 14267" transform="translate(-88.628 -38.282)"/>
        <path id="패스_14268" d="M1145.314 846.553l-.035-.028a1.638 1.638 0 0 0-.987-.336 2.019 2.019 0 0 0-1.2.433l-.037.028a2.581 2.581 0 0 1-1.721.526 2.8 2.8 0 0 1-1.469-.375 2.561 2.561 0 0 1-.98-1.036 3.345 3.345 0 0 1-.363-1.582 3.1 3.1 0 0 1 .759-2.223 2.522 2.522 0 0 1 1.953-.792 2.713 2.713 0 0 1 1.058.19 2.457 2.457 0 0 1 .828.6 1.781 1.781 0 0 0 1.358.616 1.539 1.539 0 0 0 .9-.276 1.629 1.629 0 0 0 .781-1.384 1.527 1.527 0 0 0-.4-1.036 5.769 5.769 0 0 0-4.528-2.074 6.365 6.365 0 0 0-3.205.817 5.792 5.792 0 0 0-2.24 2.3 6.75 6.75 0 0 0-.789 3.26 6.532 6.532 0 0 0 .813 3.228 5.96 5.96 0 0 0 2.276 2.3 6.45 6.45 0 0 0 3.244.827 5.889 5.889 0 0 0 4.153-1.557l.02-.019a1.522 1.522 0 0 0 .469-1.091 1.69 1.69 0 0 0-.658-1.316z" class="cls-1" data-name="패스 14268" transform="translate(-171.748 -38.282)"/>
        <path id="패스_14269" d="M1236.291 812.238a5.041 5.041 0 0 0-2.043-2.075 6.147 6.147 0 0 0-5.048-.291q-.243.1-.472.213v-3.433a1.821 1.821 0 0 0-3.073-1.3 1.762 1.762 0 0 0-.528 1.3v13.7a1.82 1.82 0 0 0 3.1 1.272 1.792 1.792 0 0 0 .5-1.272v-5.682a1.527 1.527 0 0 1 .261-.878 1.959 1.959 0 0 1 .788-.665 2.652 2.652 0 0 1 1.2-.263 2.471 2.471 0 0 1 1.793.622 2.51 2.51 0 0 1 .637 1.909v4.956a1.8 1.8 0 1 0 3.6 0V815.4a6.593 6.593 0 0 0-.715-3.162z" class="cls-1" data-name="패스 14269" transform="translate(-249.205 -9.959)"/>
        <path id="패스_14270" d="M1330.791 840.946a6.211 6.211 0 0 0-2.275-2.3 6.26 6.26 0 0 0-3.2-.841 6.369 6.369 0 0 0-3.216.838 6.089 6.089 0 0 0-2.292 2.3 6.471 6.471 0 0 0-.826 3.232 6.8 6.8 0 0 0 .764 3.211 5.875 5.875 0 0 0 2.132 2.3 5.906 5.906 0 0 0 5.545.28 5.787 5.787 0 0 0 .8-.464 1.744 1.744 0 0 0 .324.445 1.8 1.8 0 0 0 3.083-1.282v-4.493a6.413 6.413 0 0 0-.839-3.226zm-3.053 4.792a2.7 2.7 0 0 1-1 1.056 2.842 2.842 0 0 1-2.846 0 2.774 2.774 0 0 1-1.013-1.063 3.121 3.121 0 0 1-.377-1.549 3.178 3.178 0 0 1 .379-1.563 2.757 2.757 0 0 1 1.011-1.069 2.735 2.735 0 0 1 3.844 1.063 3.247 3.247 0 0 1 .372 1.57 3.185 3.185 0 0 1-.371 1.555z" class="cls-1" data-name="패스 14270" transform="translate(-329.864 -38.282)"/>
        <path id="패스_14430" d="M1532.712 531a1.613 1.613 0 0 1 1.62 1.6v10.414a.489.489 0 0 1-.007.069c0 .091.007.182.007.274a6.452 6.452 0 0 1-11.966 3.255 1.788 1.788 0 0 1-.366-1.212 1.843 1.843 0 0 1 3.521-.589 2.726 2.726 0 1 0 .011-2.808l-.018-.008a1.845 1.845 0 0 1-3.494-.434 1.8 1.8 0 0 1 .183-1.139l.009-.018a6.415 6.415 0 0 1 5.311-3.389 6.492 6.492 0 0 1 3.126.6V532.6a1.613 1.613 0 0 1 1.625-1.6z" class="cls-1" data-name="패스 14430" transform="translate(-585.787 262.476)"/>
    </g>
</svg>
