<svg xmlns="http://www.w3.org/2000/svg" width="24" height="24" viewBox="0 0 24 24">
    <g id="prefix__ic_request" transform="translate(-34.697 -717)">
        <path id="prefix__사각형_4639" d="M0 0H24V24H0z" data-name="사각형 4639" transform="translate(34.697 717)" style="fill:none"/>
        <g id="prefix__그룹_9678" data-name="그룹 9678" transform="translate(1.997 18.739)">
            <path id="prefix__빼기_1" d="M4783.875 6265.706h-8.213a2.052 2.052 0 0 1-1.634-.579 1.488 1.488 0 0 1-.318-1.108v-11.3c0-1.418 1.5-1.458 1.518-1.458h6.795l3.255 3.328v9.548a1.547 1.547 0 0 1-1.403 1.569zm-7.872-3.472v1h7v-1zm0-3v1h7v-1zm5.056-6.958v2.834h2.836z" data-name="빼기 1" transform="translate(-4734 -5546.974)" style="fill:#fff"/>
        </g>
    </g>
</svg>
