<svg xmlns="http://www.w3.org/2000/svg" id="prefix__ic_star_of" width="14" height="14" viewBox="0 0 14 14">
    <path id="prefix__사각형_582" d="M0 0H14V14H0z" data-name="사각형 582" style="fill:#fff;opacity:0"/>
    <path id="prefix__star" d="M12.95 5.2a.689.689 0 0 0-.593-.474l-3.748-.34L7.127.915a.69.69 0 0 0-1.27 0L4.376 4.383l-3.749.34a.691.691 0 0 0-.392 1.208l2.833 2.485-.835 3.684a.69.69 0 0 0 1.027.746l3.232-1.933 3.231 1.933a.691.691 0 0 0 1.027-.746l-.835-3.684 2.833-2.484a.691.691 0 0 0 .2-.734zm-6.4 5.674" transform="translate(.229 .135)" style="fill:#e1e1e1"/>
</svg>
