<svg xmlns="http://www.w3.org/2000/svg" width="10" height="18" viewBox="0 0 10 18">
    <g id="prefix__ic_map_s" transform="translate(2 4)">
        <path id="prefix__사각형_4644" d="M0 0H10V18H0z" data-name="사각형 4644" transform="translate(-2 -4)" style="fill:#fff"/>
        <path id="prefix__패스_14033" d="M74.662 0a4.093 4.093 0 0 0-4.089 4.089c0 2.8 3.659 6.905 3.815 7.079a.368.368 0 0 0 .548 0c.156-.173 3.815-4.281 3.815-7.079A4.093 4.093 0 0 0 74.662 0zm0 6.146a2.057 2.057 0 1 1 2.057-2.057 2.059 2.059 0 0 1-2.057 2.057z" data-name="패스 14033" transform="translate(-71.573)" style="fill:#323d63"/>
    </g>
</svg>
